#!OML:ASF H:\Terrain\Walking\May29\JustinRory\Justin.ASF
:FULLY-SPECIFIED
:DEGREES
865
root 7.38691 17.5556 -15.6694 -1.30852 -2.75349 -2.06711
lowerback 2.87543 -0.133952 -0.492097
upperback -1.18043 -0.111919 3.2774
thorax -2.82094 -0.0159923 3.66288
lowerneck -14.5125 -2.69157 -10.8079
upperneck 17.8328 -2.44964 6.12275
head 8.13323 -1.29642 3.56235
rclavicle -6.08778e-015 7.95139e-015
rhumerus 25.0317 12.8154 -47.8942
rradius 91.4079
rwrist 12.1682
rhand -26.523 37.9614
rfingers 7.12502
rthumb 0.0406089 7.98171
lclavicle -6.08778e-015 7.95139e-015
lhumerus 21.585 -9.8268 56.3932
lradius 90.1461
lwrist -26.7418
lhand -10.1965 36.4226
lfingers 7.12502
lthumb 15.7944 65.7982
rfemur -0.976528 -3.14569 21.0324
rtibia 17.9423
rfoot -12.869 -12.0528
rtoes 1.27669
lfemur -1.41976 0.521283 -13.5174
ltibia 20.7533
lfoot -15.871 4.57399
ltoes -11.2002
866
root 7.38761 17.5536 -15.6731 -1.33927 -2.70321 -2.30584
lowerback 2.84987 -0.204876 -0.245038
upperback -1.09073 -0.19689 3.38531
thorax -2.70876 -0.063892 3.63863
lowerneck -14.4273 -2.61516 -11.0152
upperneck 17.6436 -2.33389 6.2872
head 8.04844 -1.23736 3.66318
rclavicle -9.19379e-016 -1.59028e-014
rhumerus 25.3246 12.8112 -47.8262
rradius 91.1782
rwrist 12.2254
rhand -26.799 38.1804
rfingers 7.12502
rthumb -0.225956 8.20082
lclavicle -9.19379e-016 -1.59028e-014
lhumerus 21.5181 -9.69684 56.4375
lradius 90.075
lwrist -27.0171
lhand -11.6293 36.5565
lfingers 7.12502
lthumb 14.4142 66.036
rfemur -0.988617 -3.19165 21.2983
rtibia 18.0192
rfoot -12.8009 -12.1114
rtoes 0.464706
lfemur -1.30768 0.399088 -13.252
ltibia 20.6262
lfoot -15.8288 4.62343
ltoes -11.8386
867
root 7.38329 17.5567 -15.6807 -1.35863 -2.65387 -2.08894
lowerback 3.35957 -0.258924 -0.430529
upperback -1.42106 -0.263435 3.28135
thorax -3.33274 -0.0850689 3.64784
lowerneck -13.9476 -2.47766 -10.9523
upperneck 17.577 -2.20564 6.25343
head 7.92704 -1.1814 3.6551
rclavicle 4.34841e-015 0
rhumerus 25.026 13.12 -48.0252
rradius 91.0054
rwrist 12.3377
rhand -27.0462 38.2367
rfingers 7.12502
rthumb -0.464742 8.25742
lclavicle 4.34841e-015 0
lhumerus 20.961 -9.96295 56.3961
lradius 90.1006
lwrist -26.9617
lhand -13.3549 36.7144
lfingers 7.12502
lthumb 12.7511 66.3051
rfemur -1.05332 -3.2042 21.0848
rtibia 18.0988
rfoot -12.7211 -12.179
rtoes -0.140075
lfemur -1.30189 0.370224 -13.471
ltibia 20.5422
lfoot -15.7706 4.61208
ltoes -11.8282
868
root 7.37262 17.5544 -15.6896 -1.38763 -2.60548 -1.84057
lowerback 3.19583 -0.258253 -0.898002
upperback -1.18469 -0.290246 3.32695
thorax -2.99225 -0.0948999 3.95724
lowerneck -14.2664 -2.59485 -10.7823
upperneck 17.4617 -2.2679 5.76419
head 7.94634 -1.24003 3.45123
rclavicle 1.32192e-014 2.8625e-014
rhumerus 25.5064 12.8911 -47.7309
rradius 90.776
rwrist 12.3509
rhand -27.2854 38.1044
rfingers 7.12502
rthumb -0.695728 8.12575
lclavicle 1.32192e-014 2.8625e-014
lhumerus 21.2193 -9.76689 56.4342
lradius 90.1309
lwrist -26.6518
lhand -14.8664 37.0558
lfingers 7.12502
lthumb 11.2936 66.7318
rfemur -1.04332 -3.14079 20.8807
rtibia 18.1144
rfoot -12.7966 -12.2885
rtoes -0.0231416
lfemur -1.33023 0.480342 -13.68
ltibia 20.5429
lfoot -15.7562 4.37783
ltoes -11.0266
869
root 7.37079 17.5481 -15.69 -1.42327 -2.5944 -2.0367
lowerback 3.18435 -0.287226 -0.710097
upperback -1.08704 -0.320692 3.42145
thorax -2.88313 -0.115214 3.94969
lowerneck -15.1097 -2.79551 -10.3562
upperneck 18.0766 -2.39843 4.96419
head 8.30242 -1.35285 3.0995
rclavicle -8.24956e-015 -1.90833e-014
rhumerus 25.8877 12.9092 -47.4865
rradius 90.52
rwrist 12.0899
rhand -27.6158 38.2429
rfingers 7.12502
rthumb -1.01487 8.26558
lclavicle -8.24956e-015 -1.90833e-014
lhumerus 21.2256 -9.67612 56.3987
lradius 90.308
lwrist -26.2468
lhand -15.6415 37.4265
lfingers 7.12502
lthumb 10.546 67.142
rfemur -0.969592 -3.19681 21.1026
rtibia 18.1521
rfoot -12.9101 -12.2563
rtoes 0.184336
lfemur -1.27343 0.583364 -13.4468
ltibia 20.5112
lfoot -15.6636 4.21006
ltoes -10.3244
870
root 7.37548 17.5487 -15.6938 -1.38179 -2.72681 -2.24444
lowerback 3.34544 -0.257975 -0.341436
upperback -1.19671 -0.260407 3.40965
thorax -3.09304 -0.0887216 3.72812
lowerneck -16.0851 -2.98462 -9.63123
upperneck 19.0363 -2.5519 4.04215
head 8.7966 -1.47705 2.65187
rclavicle 1.2275e-014 1.82882e-014
rhumerus 25.8665 13.0437 -47.4801
rradius 90.3442
rwrist 11.7494
rhand -27.9623 38.4452
rfingers 7.12502
rthumb -1.34953 8.46971
lclavicle 1.2275e-014 1.82882e-014
lhumerus 21.1172 -9.8132 56.2044
lradius 90.4557
lwrist -25.6368
lhand -16.3346 37.6853
lfingers 7.12502
lthumb 9.87733 67.4336
rfemur -1.03486 -3.04688 21.3158
rtibia 18.1774
rfoot -12.9629 -12.1649
rtoes 0.820723
lfemur -1.29203 0.618647 -13.2494
ltibia 20.4757
lfoot -15.5354 4.33286
ltoes -10.1396
871
root 7.37481 17.5574 -15.6997 -1.31473 -2.86956 -1.96637
lowerback 3.52263 -0.202952 -0.504735
upperback -1.35425 -0.193365 3.22969
thorax -3.36024 -0.0494244 3.63263
lowerneck -14.6332 -2.59471 -10.2582
upperneck 17.8743 -2.25822 5.27525
head 8.1373 -1.25073 3.20474
rclavicle 2.88238e-015 -6.36111e-015
rhumerus 25.5966 13.1183 -47.5866
rradius 90.3878
rwrist 11.3491
rhand -28.2618 38.3744
rfingers 7.12502
rthumb -1.6388 8.40099
lclavicle 2.88238e-015 -6.36111e-015
lhumerus 21.035 -10.0967 55.8979
lradius 90.5605
lwrist -24.7193
lhand -17.137 38.0314
lfingers 7.12502
lthumb 9.10311 67.815
rfemur -1.15202 -2.8078 21.0275
rtibia 18.1439
rfoot -12.9123 -12.171
rtoes 1.20945
lfemur -1.40425 0.552607 -13.5843
ltibia 20.4863
lfoot -15.4772 4.61089
ltoes -10.4544
